<mxfile host="app.diagrams.net" modified="2022-07-06T18:39:23.254Z" agent="5.0 (Windows NT 10.0; Win64; x64) AppleWebKit/537.36 (KHTML, like Gecko) Chrome/103.0.0.0 Safari/537.36" etag="rrjKwAZ2cRUIM8HTtUJb" version="20.0.4" type="github">
  <diagram name="Page-1" id="e3a06f82-3646-2815-327d-82caf3d4e204">
    <mxGraphModel dx="2946" dy="1089" grid="1" gridSize="10" guides="1" tooltips="1" connect="1" arrows="1" fold="1" page="1" pageScale="1.5" pageWidth="1169" pageHeight="826" background="none" math="0" shadow="0">
      <root>
        <mxCell id="0" style=";html=1;" />
        <mxCell id="1" style=";html=1;" parent="0" />
        <mxCell id="hs_g02ZaxeZcEx3gIlTG-55" value="" style="rounded=0;whiteSpace=wrap;html=1;fillColor=#ffe6cc;strokeColor=#d79b00;shadow=0;sketch=0;glass=0;" vertex="1" parent="1">
          <mxGeometry x="690" y="160" width="238.5" height="960" as="geometry" />
        </mxCell>
        <mxCell id="hs_g02ZaxeZcEx3gIlTG-54" value="" style="rounded=0;whiteSpace=wrap;html=1;fillColor=#d5e8d4;strokeColor=#82b366;shadow=0;sketch=0;glass=0;" vertex="1" parent="1">
          <mxGeometry x="1010" y="160" width="238.5" height="960" as="geometry" />
        </mxCell>
        <mxCell id="hs_g02ZaxeZcEx3gIlTG-53" value="" style="rounded=0;whiteSpace=wrap;html=1;fillColor=#dae8fc;strokeColor=#6c8ebf;shadow=0;sketch=0;glass=0;" vertex="1" parent="1">
          <mxGeometry x="1300" y="160" width="238.5" height="960" as="geometry" />
        </mxCell>
        <mxCell id="hs_g02ZaxeZcEx3gIlTG-13" value="PR Client 1" style="verticalLabelPosition=bottom;sketch=0;aspect=fixed;html=1;verticalAlign=top;strokeColor=none;align=center;outlineConnect=0;shape=mxgraph.citrix.pbx_server;" vertex="1" parent="1">
          <mxGeometry x="766" y="1000" width="65" height="85" as="geometry" />
        </mxCell>
        <mxCell id="hs_g02ZaxeZcEx3gIlTG-14" value="PP Client 1" style="verticalLabelPosition=bottom;sketch=0;aspect=fixed;html=1;verticalAlign=top;strokeColor=none;align=center;outlineConnect=0;shape=mxgraph.citrix.pbx_server;" vertex="1" parent="1">
          <mxGeometry x="767" y="840" width="65" height="85" as="geometry" />
        </mxCell>
        <mxCell id="hs_g02ZaxeZcEx3gIlTG-15" value="Main Client 1" style="verticalLabelPosition=bottom;sketch=0;aspect=fixed;html=1;verticalAlign=top;strokeColor=none;align=center;outlineConnect=0;shape=mxgraph.citrix.pbx_server;" vertex="1" parent="1">
          <mxGeometry x="770" y="680" width="65" height="85" as="geometry" />
        </mxCell>
        <mxCell id="hs_g02ZaxeZcEx3gIlTG-16" value="Dev Client 1" style="verticalLabelPosition=bottom;sketch=0;aspect=fixed;html=1;verticalAlign=top;strokeColor=none;align=center;outlineConnect=0;shape=mxgraph.citrix.pbx_server;" vertex="1" parent="1">
          <mxGeometry x="770" y="200" width="65" height="85" as="geometry" />
        </mxCell>
        <mxCell id="hs_g02ZaxeZcEx3gIlTG-17" value="Rec Client 1" style="verticalLabelPosition=bottom;sketch=0;aspect=fixed;html=1;verticalAlign=top;strokeColor=none;align=center;outlineConnect=0;shape=mxgraph.citrix.pbx_server;" vertex="1" parent="1">
          <mxGeometry x="770" y="360" width="65" height="85" as="geometry" />
        </mxCell>
        <mxCell id="hs_g02ZaxeZcEx3gIlTG-18" value="UAT Client 1" style="verticalLabelPosition=bottom;sketch=0;aspect=fixed;html=1;verticalAlign=top;strokeColor=none;align=center;outlineConnect=0;shape=mxgraph.citrix.pbx_server;" vertex="1" parent="1">
          <mxGeometry x="770" y="520" width="65" height="85" as="geometry" />
        </mxCell>
        <mxCell id="hs_g02ZaxeZcEx3gIlTG-19" value="" style="verticalLabelPosition=bottom;sketch=0;aspect=fixed;html=1;verticalAlign=top;strokeColor=none;align=center;outlineConnect=0;shape=mxgraph.citrix.database;" vertex="1" parent="1">
          <mxGeometry x="810" y="235" width="42.5" height="50" as="geometry" />
        </mxCell>
        <mxCell id="hs_g02ZaxeZcEx3gIlTG-23" value="" style="verticalLabelPosition=bottom;sketch=0;aspect=fixed;html=1;verticalAlign=top;strokeColor=none;align=center;outlineConnect=0;shape=mxgraph.citrix.database;" vertex="1" parent="1">
          <mxGeometry x="807" y="715" width="42.5" height="50" as="geometry" />
        </mxCell>
        <mxCell id="hs_g02ZaxeZcEx3gIlTG-24" value="" style="verticalLabelPosition=bottom;sketch=0;aspect=fixed;html=1;verticalAlign=top;strokeColor=none;align=center;outlineConnect=0;shape=mxgraph.citrix.database;" vertex="1" parent="1">
          <mxGeometry x="810" y="555" width="42.5" height="50" as="geometry" />
        </mxCell>
        <mxCell id="hs_g02ZaxeZcEx3gIlTG-25" value="" style="verticalLabelPosition=bottom;sketch=0;aspect=fixed;html=1;verticalAlign=top;strokeColor=none;align=center;outlineConnect=0;shape=mxgraph.citrix.database;" vertex="1" parent="1">
          <mxGeometry x="810" y="395" width="42.5" height="50" as="geometry" />
        </mxCell>
        <mxCell id="hs_g02ZaxeZcEx3gIlTG-26" value="" style="verticalLabelPosition=bottom;sketch=0;aspect=fixed;html=1;verticalAlign=top;strokeColor=none;align=center;outlineConnect=0;shape=mxgraph.citrix.database;" vertex="1" parent="1">
          <mxGeometry x="807" y="875" width="42.5" height="50" as="geometry" />
        </mxCell>
        <mxCell id="hs_g02ZaxeZcEx3gIlTG-27" value="" style="verticalLabelPosition=bottom;sketch=0;aspect=fixed;html=1;verticalAlign=top;strokeColor=none;align=center;outlineConnect=0;shape=mxgraph.citrix.database;" vertex="1" parent="1">
          <mxGeometry x="807" y="1035" width="42.5" height="50" as="geometry" />
        </mxCell>
        <mxCell id="hs_g02ZaxeZcEx3gIlTG-28" value="PR Client 2" style="verticalLabelPosition=bottom;sketch=0;aspect=fixed;html=1;verticalAlign=top;strokeColor=none;align=center;outlineConnect=0;shape=mxgraph.citrix.pbx_server;" vertex="1" parent="1">
          <mxGeometry x="1080" y="1000" width="65" height="85" as="geometry" />
        </mxCell>
        <mxCell id="hs_g02ZaxeZcEx3gIlTG-29" value="PP Client 2" style="verticalLabelPosition=bottom;sketch=0;aspect=fixed;html=1;verticalAlign=top;strokeColor=none;align=center;outlineConnect=0;shape=mxgraph.citrix.pbx_server;" vertex="1" parent="1">
          <mxGeometry x="1081" y="840" width="65" height="85" as="geometry" />
        </mxCell>
        <mxCell id="hs_g02ZaxeZcEx3gIlTG-30" value="Main Client 2" style="verticalLabelPosition=bottom;sketch=0;aspect=fixed;html=1;verticalAlign=top;strokeColor=none;align=center;outlineConnect=0;shape=mxgraph.citrix.pbx_server;" vertex="1" parent="1">
          <mxGeometry x="1084" y="680" width="65" height="85" as="geometry" />
        </mxCell>
        <mxCell id="hs_g02ZaxeZcEx3gIlTG-31" value="Dev Client 2" style="verticalLabelPosition=bottom;sketch=0;aspect=fixed;html=1;verticalAlign=top;strokeColor=none;align=center;outlineConnect=0;shape=mxgraph.citrix.pbx_server;" vertex="1" parent="1">
          <mxGeometry x="1084" y="200" width="65" height="85" as="geometry" />
        </mxCell>
        <mxCell id="hs_g02ZaxeZcEx3gIlTG-32" value="Rec Client 2" style="verticalLabelPosition=bottom;sketch=0;aspect=fixed;html=1;verticalAlign=top;strokeColor=none;align=center;outlineConnect=0;shape=mxgraph.citrix.pbx_server;" vertex="1" parent="1">
          <mxGeometry x="1084" y="360" width="65" height="85" as="geometry" />
        </mxCell>
        <mxCell id="hs_g02ZaxeZcEx3gIlTG-33" value="UAT Client 2" style="verticalLabelPosition=bottom;sketch=0;aspect=fixed;html=1;verticalAlign=top;strokeColor=none;align=center;outlineConnect=0;shape=mxgraph.citrix.pbx_server;" vertex="1" parent="1">
          <mxGeometry x="1084" y="520" width="65" height="85" as="geometry" />
        </mxCell>
        <mxCell id="hs_g02ZaxeZcEx3gIlTG-34" value="" style="verticalLabelPosition=bottom;sketch=0;aspect=fixed;html=1;verticalAlign=top;strokeColor=none;align=center;outlineConnect=0;shape=mxgraph.citrix.database;" vertex="1" parent="1">
          <mxGeometry x="1124" y="235" width="42.5" height="50" as="geometry" />
        </mxCell>
        <mxCell id="hs_g02ZaxeZcEx3gIlTG-35" value="" style="verticalLabelPosition=bottom;sketch=0;aspect=fixed;html=1;verticalAlign=top;strokeColor=none;align=center;outlineConnect=0;shape=mxgraph.citrix.database;" vertex="1" parent="1">
          <mxGeometry x="1121" y="715" width="42.5" height="50" as="geometry" />
        </mxCell>
        <mxCell id="hs_g02ZaxeZcEx3gIlTG-36" value="" style="verticalLabelPosition=bottom;sketch=0;aspect=fixed;html=1;verticalAlign=top;strokeColor=none;align=center;outlineConnect=0;shape=mxgraph.citrix.database;" vertex="1" parent="1">
          <mxGeometry x="1124" y="555" width="42.5" height="50" as="geometry" />
        </mxCell>
        <mxCell id="hs_g02ZaxeZcEx3gIlTG-37" value="" style="verticalLabelPosition=bottom;sketch=0;aspect=fixed;html=1;verticalAlign=top;strokeColor=none;align=center;outlineConnect=0;shape=mxgraph.citrix.database;" vertex="1" parent="1">
          <mxGeometry x="1124" y="395" width="42.5" height="50" as="geometry" />
        </mxCell>
        <mxCell id="hs_g02ZaxeZcEx3gIlTG-38" value="" style="verticalLabelPosition=bottom;sketch=0;aspect=fixed;html=1;verticalAlign=top;strokeColor=none;align=center;outlineConnect=0;shape=mxgraph.citrix.database;" vertex="1" parent="1">
          <mxGeometry x="1121" y="875" width="42.5" height="50" as="geometry" />
        </mxCell>
        <mxCell id="hs_g02ZaxeZcEx3gIlTG-39" value="" style="verticalLabelPosition=bottom;sketch=0;aspect=fixed;html=1;verticalAlign=top;strokeColor=none;align=center;outlineConnect=0;shape=mxgraph.citrix.database;" vertex="1" parent="1">
          <mxGeometry x="1121" y="1035" width="42.5" height="50" as="geometry" />
        </mxCell>
        <mxCell id="hs_g02ZaxeZcEx3gIlTG-40" value="PR Client N" style="verticalLabelPosition=bottom;sketch=0;aspect=fixed;html=1;verticalAlign=top;strokeColor=none;align=center;outlineConnect=0;shape=mxgraph.citrix.pbx_server;" vertex="1" parent="1">
          <mxGeometry x="1380" y="1000" width="65" height="85" as="geometry" />
        </mxCell>
        <mxCell id="hs_g02ZaxeZcEx3gIlTG-41" value="PP Client N" style="verticalLabelPosition=bottom;sketch=0;aspect=fixed;html=1;verticalAlign=top;strokeColor=none;align=center;outlineConnect=0;shape=mxgraph.citrix.pbx_server;" vertex="1" parent="1">
          <mxGeometry x="1381" y="840" width="65" height="85" as="geometry" />
        </mxCell>
        <mxCell id="hs_g02ZaxeZcEx3gIlTG-42" value="Main Client N" style="verticalLabelPosition=bottom;sketch=0;aspect=fixed;html=1;verticalAlign=top;strokeColor=none;align=center;outlineConnect=0;shape=mxgraph.citrix.pbx_server;" vertex="1" parent="1">
          <mxGeometry x="1384" y="680" width="65" height="85" as="geometry" />
        </mxCell>
        <mxCell id="hs_g02ZaxeZcEx3gIlTG-43" value="Dev Client N" style="verticalLabelPosition=bottom;sketch=0;aspect=fixed;html=1;verticalAlign=top;strokeColor=none;align=center;outlineConnect=0;shape=mxgraph.citrix.pbx_server;" vertex="1" parent="1">
          <mxGeometry x="1384" y="200" width="65" height="85" as="geometry" />
        </mxCell>
        <mxCell id="hs_g02ZaxeZcEx3gIlTG-44" value="Rec Client N" style="verticalLabelPosition=bottom;sketch=0;aspect=fixed;html=1;verticalAlign=top;strokeColor=none;align=center;outlineConnect=0;shape=mxgraph.citrix.pbx_server;" vertex="1" parent="1">
          <mxGeometry x="1384" y="360" width="65" height="85" as="geometry" />
        </mxCell>
        <mxCell id="hs_g02ZaxeZcEx3gIlTG-45" value="UAT Client N" style="verticalLabelPosition=bottom;sketch=0;aspect=fixed;html=1;verticalAlign=top;strokeColor=none;align=center;outlineConnect=0;shape=mxgraph.citrix.pbx_server;" vertex="1" parent="1">
          <mxGeometry x="1384" y="520" width="65" height="85" as="geometry" />
        </mxCell>
        <mxCell id="hs_g02ZaxeZcEx3gIlTG-46" value="" style="verticalLabelPosition=bottom;sketch=0;aspect=fixed;html=1;verticalAlign=top;strokeColor=none;align=center;outlineConnect=0;shape=mxgraph.citrix.database;" vertex="1" parent="1">
          <mxGeometry x="1424" y="235" width="42.5" height="50" as="geometry" />
        </mxCell>
        <mxCell id="hs_g02ZaxeZcEx3gIlTG-47" value="" style="verticalLabelPosition=bottom;sketch=0;aspect=fixed;html=1;verticalAlign=top;strokeColor=none;align=center;outlineConnect=0;shape=mxgraph.citrix.database;" vertex="1" parent="1">
          <mxGeometry x="1421" y="715" width="42.5" height="50" as="geometry" />
        </mxCell>
        <mxCell id="hs_g02ZaxeZcEx3gIlTG-48" value="" style="verticalLabelPosition=bottom;sketch=0;aspect=fixed;html=1;verticalAlign=top;strokeColor=none;align=center;outlineConnect=0;shape=mxgraph.citrix.database;" vertex="1" parent="1">
          <mxGeometry x="1424" y="555" width="42.5" height="50" as="geometry" />
        </mxCell>
        <mxCell id="hs_g02ZaxeZcEx3gIlTG-49" value="" style="verticalLabelPosition=bottom;sketch=0;aspect=fixed;html=1;verticalAlign=top;strokeColor=none;align=center;outlineConnect=0;shape=mxgraph.citrix.database;" vertex="1" parent="1">
          <mxGeometry x="1424" y="395" width="42.5" height="50" as="geometry" />
        </mxCell>
        <mxCell id="hs_g02ZaxeZcEx3gIlTG-50" value="" style="verticalLabelPosition=bottom;sketch=0;aspect=fixed;html=1;verticalAlign=top;strokeColor=none;align=center;outlineConnect=0;shape=mxgraph.citrix.database;" vertex="1" parent="1">
          <mxGeometry x="1421" y="875" width="42.5" height="50" as="geometry" />
        </mxCell>
        <mxCell id="hs_g02ZaxeZcEx3gIlTG-51" value="" style="verticalLabelPosition=bottom;sketch=0;aspect=fixed;html=1;verticalAlign=top;strokeColor=none;align=center;outlineConnect=0;shape=mxgraph.citrix.database;" vertex="1" parent="1">
          <mxGeometry x="1421" y="1035" width="42.5" height="50" as="geometry" />
        </mxCell>
        <mxCell id="hs_g02ZaxeZcEx3gIlTG-57" value="Client 1" style="text;strokeColor=none;fillColor=none;html=1;fontSize=24;fontStyle=1;verticalAlign=middle;align=center;rounded=0;shadow=0;glass=0;sketch=0;fontColor=#D4A97F;labelBackgroundColor=none;labelBorderColor=none;" vertex="1" parent="1">
          <mxGeometry x="748" y="110" width="100" height="40" as="geometry" />
        </mxCell>
        <mxCell id="hs_g02ZaxeZcEx3gIlTG-58" value="Client 2" style="text;strokeColor=none;fillColor=none;html=1;fontSize=24;fontStyle=1;verticalAlign=middle;align=center;rounded=0;shadow=0;glass=0;sketch=0;fontColor=#9DC49D;labelBackgroundColor=none;labelBorderColor=none;" vertex="1" parent="1">
          <mxGeometry x="1080" y="110" width="100" height="40" as="geometry" />
        </mxCell>
        <mxCell id="hs_g02ZaxeZcEx3gIlTG-59" value="Client N" style="text;strokeColor=none;fillColor=none;html=1;fontSize=24;fontStyle=1;verticalAlign=middle;align=center;rounded=0;shadow=0;glass=0;sketch=0;fontColor=#88B6E3;labelBackgroundColor=none;labelBorderColor=none;" vertex="1" parent="1">
          <mxGeometry x="1369.25" y="110" width="100" height="40" as="geometry" />
        </mxCell>
        <mxCell id="hs_g02ZaxeZcEx3gIlTG-60" value="" style="rounded=0;whiteSpace=wrap;html=1;shadow=0;glass=0;labelBackgroundColor=none;labelBorderColor=none;sketch=0;fontColor=#333333;fillColor=#f5f5f5;opacity=50;strokeColor=#666666;" vertex="1" parent="1">
          <mxGeometry x="650" y="177.5" width="920" height="130" as="geometry" />
        </mxCell>
        <mxCell id="hs_g02ZaxeZcEx3gIlTG-73" value="" style="rounded=0;whiteSpace=wrap;html=1;shadow=0;glass=0;labelBackgroundColor=none;labelBorderColor=none;sketch=0;fontColor=#333333;fillColor=#f5f5f5;opacity=50;strokeColor=#666666;" vertex="1" parent="1">
          <mxGeometry x="653.5" y="337.5" width="920" height="130" as="geometry" />
        </mxCell>
        <mxCell id="hs_g02ZaxeZcEx3gIlTG-74" value="" style="rounded=0;whiteSpace=wrap;html=1;shadow=0;glass=0;labelBackgroundColor=none;labelBorderColor=none;sketch=0;fontColor=#333333;fillColor=#f5f5f5;opacity=50;strokeColor=#666666;" vertex="1" parent="1">
          <mxGeometry x="650" y="497.5" width="920" height="130" as="geometry" />
        </mxCell>
        <mxCell id="hs_g02ZaxeZcEx3gIlTG-75" value="" style="rounded=0;whiteSpace=wrap;html=1;shadow=0;glass=0;labelBackgroundColor=none;labelBorderColor=none;sketch=0;fontColor=#333333;fillColor=#f5f5f5;opacity=50;strokeColor=#666666;" vertex="1" parent="1">
          <mxGeometry x="650" y="657.5" width="920" height="130" as="geometry" />
        </mxCell>
        <mxCell id="hs_g02ZaxeZcEx3gIlTG-76" value="" style="rounded=0;whiteSpace=wrap;html=1;shadow=0;glass=0;labelBackgroundColor=none;labelBorderColor=none;sketch=0;fontColor=#333333;fillColor=#f5f5f5;opacity=50;strokeColor=#666666;" vertex="1" parent="1">
          <mxGeometry x="650" y="817.5" width="920" height="130" as="geometry" />
        </mxCell>
        <mxCell id="hs_g02ZaxeZcEx3gIlTG-77" value="" style="rounded=0;whiteSpace=wrap;html=1;shadow=0;glass=0;labelBackgroundColor=none;labelBorderColor=none;sketch=0;fontColor=#333333;fillColor=#f5f5f5;opacity=50;strokeColor=#666666;" vertex="1" parent="1">
          <mxGeometry x="650" y="977.5" width="920" height="130" as="geometry" />
        </mxCell>
        <mxCell id="hs_g02ZaxeZcEx3gIlTG-78" value="&lt;font style=&quot;font-size: 27px;&quot;&gt;Dev&lt;/font&gt;" style="text;strokeColor=none;fillColor=none;html=1;fontSize=27;fontStyle=1;verticalAlign=middle;align=center;rounded=0;shadow=0;glass=0;labelBackgroundColor=none;labelBorderColor=none;sketch=0;fontColor=#000000;opacity=50;" vertex="1" parent="1">
          <mxGeometry x="1570" y="222.5" width="100" height="40" as="geometry" />
        </mxCell>
        <mxCell id="hs_g02ZaxeZcEx3gIlTG-79" value="&lt;font style=&quot;font-size: 27px;&quot;&gt;Test&lt;/font&gt;" style="text;strokeColor=none;fillColor=none;html=1;fontSize=27;fontStyle=1;verticalAlign=middle;align=center;rounded=0;shadow=0;glass=0;labelBackgroundColor=none;labelBorderColor=none;sketch=0;fontColor=#000000;opacity=50;" vertex="1" parent="1">
          <mxGeometry x="1570" y="382.5" width="100" height="40" as="geometry" />
        </mxCell>
        <mxCell id="hs_g02ZaxeZcEx3gIlTG-80" value="&lt;font style=&quot;font-size: 27px;&quot;&gt;UAT&lt;/font&gt;" style="text;strokeColor=none;fillColor=none;html=1;fontSize=27;fontStyle=1;verticalAlign=middle;align=center;rounded=0;shadow=0;glass=0;labelBackgroundColor=none;labelBorderColor=none;sketch=0;fontColor=#000000;opacity=50;" vertex="1" parent="1">
          <mxGeometry x="1573.5" y="542.5" width="100" height="40" as="geometry" />
        </mxCell>
        <mxCell id="hs_g02ZaxeZcEx3gIlTG-83" value="&lt;font style=&quot;font-size: 27px;&quot;&gt;Main&lt;/font&gt;" style="text;strokeColor=none;fillColor=none;html=1;fontSize=27;fontStyle=1;verticalAlign=middle;align=center;rounded=0;shadow=0;glass=0;labelBackgroundColor=none;labelBorderColor=none;sketch=0;fontColor=#000000;opacity=50;" vertex="1" parent="1">
          <mxGeometry x="1580" y="702.5" width="100" height="40" as="geometry" />
        </mxCell>
        <mxCell id="hs_g02ZaxeZcEx3gIlTG-84" value="&lt;font style=&quot;font-size: 27px;&quot;&gt;PP&lt;/font&gt;" style="text;strokeColor=none;fillColor=none;html=1;fontSize=27;fontStyle=1;verticalAlign=middle;align=center;rounded=0;shadow=0;glass=0;labelBackgroundColor=none;labelBorderColor=none;sketch=0;fontColor=#000000;opacity=50;" vertex="1" parent="1">
          <mxGeometry x="1570" y="862.5" width="100" height="40" as="geometry" />
        </mxCell>
        <mxCell id="hs_g02ZaxeZcEx3gIlTG-85" value="&lt;font style=&quot;font-size: 27px;&quot;&gt;PR&lt;/font&gt;" style="text;strokeColor=none;fillColor=none;html=1;fontSize=27;fontStyle=1;verticalAlign=middle;align=center;rounded=0;shadow=0;glass=0;labelBackgroundColor=none;labelBorderColor=none;sketch=0;fontColor=#000000;opacity=50;" vertex="1" parent="1">
          <mxGeometry x="1580" y="1022.5" width="100" height="40" as="geometry" />
        </mxCell>
        <mxCell id="hs_g02ZaxeZcEx3gIlTG-93" value="Monitor" style="text;strokeColor=none;fillColor=none;html=1;fontSize=24;fontStyle=1;verticalAlign=middle;align=center;fontFamily=Helvetica;fontColor=#000000;" vertex="1" parent="1">
          <mxGeometry x="260" y="405" width="100" height="40" as="geometry" />
        </mxCell>
        <mxCell id="hs_g02ZaxeZcEx3gIlTG-99" value="" style="shape=curlyBracket;whiteSpace=wrap;html=1;rounded=1;fontFamily=Helvetica;fontSize=27;fontColor=#000000;gradientColor=none;strokeWidth=4;" vertex="1" parent="1">
          <mxGeometry x="570" y="167.5" width="70" height="945" as="geometry" />
        </mxCell>
        <mxCell id="hs_g02ZaxeZcEx3gIlTG-100" value="&lt;b id=&quot;docs-internal-guid-376e75ed-7fff-9b9b-e977-05303c9be365&quot; style=&quot;font-weight:normal;&quot;&gt;&lt;span style=&quot;font-size: 12pt; font-family: Arial; color: rgb(41, 41, 41); background-color: rgb(255, 255, 255); font-weight: 400; font-style: normal; font-variant: normal; text-decoration: none; vertical-align: baseline;&quot;&gt;&lt;span style=&quot;border:none;display:inline-block;overflow:hidden;width:466px;height:343px;&quot;&gt;&lt;img style=&quot;margin-left:0px;margin-top:0px;&quot; height=&quot;343&quot; width=&quot;466&quot; src=&quot;https://lh4.googleusercontent.com/Rjv6dqNBYusDtiRUZhGMLjZ6F8YxpqY1Kkuiv-fxahpZNz8vL5HFTk5VrcvgiKHctOO2tj7AmOrb8CtP3HMtDPUjVZtRQgp2C02B48E8BVIPSt0riDTppJACTV3T6yqfrK_X36EmslLPZ6fcyaU&quot;&gt;&lt;/span&gt;&lt;/span&gt;&lt;/b&gt;" style="text;whiteSpace=wrap;html=1;fontSize=27;fontFamily=Helvetica;fontColor=#000000;" vertex="1" parent="1">
          <mxGeometry x="90" y="445" width="500" height="370" as="geometry" />
        </mxCell>
      </root>
    </mxGraphModel>
  </diagram>
</mxfile>
